<?xml version="1.0" encoding="UTF-8" standalone="no"?>
<!DOCTYPE svg PUBLIC "-//W3C//DTD SVG 1.1//EN"
 "http://www.w3.org/Graphics/SVG/1.1/DTD/svg11.dtd">
<!-- Generated by graphviz version 2.40.1 (20161225.0304)
 -->
<!-- Title: G Pages: 1 -->
<svg width="944pt" height="444pt"
 viewBox="0.00 0.00 943.60 444.00" xmlns="http://www.w3.org/2000/svg" xmlns:xlink="http://www.w3.org/1999/xlink">
<g id="graph0" class="graph" transform="scale(1 1) rotate(0) translate(4 440)">
<title>G</title>
<polygon fill="#ffffff" stroke="transparent" points="-4,4 -4,-440 939.596,-440 939.596,4 -4,4"/>
<!-- A0 -->
<g id="node1" class="node">
<title>A0</title>
<polygon fill="none" stroke="#000000" points="124.5414,-273 .1526,-273 .1526,-237 124.5414,-237 124.5414,-273"/>
<text text-anchor="middle" x="62.347" y="-252" font-family="Helvetica,sans-Serif" font-size="10.00" fill="#000000">ProyectoGobernacion</text>
</g>
<!-- A3 -->
<g id="node4" class="node">
<title>A3</title>
<polygon fill="none" stroke="#000000" points="175.194,-255 175.194,-287 260.194,-287 260.194,-255 175.194,-255"/>
<text text-anchor="start" x="186.851" y="-268" font-family="Helvetica,sans-Serif" font-size="10.00" fill="#000000">ParqueInfantil</text>
<polygon fill="none" stroke="#000000" points="175.194,-223 175.194,-255 260.194,-255 260.194,-223 175.194,-223"/>
<text text-anchor="start" x="185.19" y="-236" font-family="Helvetica,sans-Serif" font-size="10.00" fill="#000000">&#45;nombre:Texto</text>
</g>
<!-- A0&#45;&gt;A3 -->
<g id="edge1" class="edge">
<title>A0&#45;&gt;A3</title>
<path fill="none" stroke="#000000" d="M137.0796,-255C146.2799,-255 155.5309,-255 164.3122,-255"/>
<polygon fill="none" stroke="#000000" points="136.8829,-255.0001 130.8828,-259 124.8829,-255 130.8829,-251 136.8829,-255.0001"/>
<polygon fill="#000000" stroke="#000000" points="174.3736,-255 164.3737,-259.5001 169.3736,-255 164.3736,-255.0001 164.3736,-255.0001 164.3736,-255.0001 169.3736,-255 164.3736,-250.5001 174.3736,-255 174.3736,-255"/>
<text text-anchor="middle" x="156.2475" y="-260.4524" font-family="Helvetica,sans-Serif" font-size="10.00" fill="#000000">*</text>
<text text-anchor="middle" x="143.009" y="-243.5476" font-family="Helvetica,sans-Serif" font-size="10.00" fill="#000000">1</text>
</g>
<!-- A1 -->
<g id="node2" class="node">
<title>A1</title>
<polygon fill="none" stroke="#000000" points="310.194,-392 310.194,-436 445.194,-436 445.194,-392 310.194,-392"/>
<text text-anchor="start" x="353.513" y="-417" font-family="Helvetica,sans-Serif" font-size="10.00" fill="#000000">&lt;&lt;enum&gt;&gt;</text>
<text text-anchor="start" x="356.583" y="-405" font-family="Helvetica,sans-Serif" font-size="10.00" fill="#000000">Municipio</text>
<polygon fill="none" stroke="#000000" points="310.194,-228 310.194,-392 445.194,-392 445.194,-228 310.194,-228"/>
<text text-anchor="start" x="344.64" y="-373" font-family="Helvetica,sans-Serif" font-size="10.00" fill="#000000">ARMENIA(0.0)</text>
<text text-anchor="start" x="332.687" y="-361" font-family="Helvetica,sans-Serif" font-size="10.00" fill="#000000">CALARCA(10000.0)</text>
<text text-anchor="start" x="319.9135" y="-349" font-family="Helvetica,sans-Serif" font-size="10.00" fill="#000000">MONTENEGRO(20000.0)</text>
<text text-anchor="start" x="329.9075" y="-337" font-family="Helvetica,sans-Serif" font-size="10.00" fill="#000000">QUIMBAYA(30000.0)</text>
<text text-anchor="start" x="334.907" y="-325" font-family="Helvetica,sans-Serif" font-size="10.00" fill="#000000">TEBAIDA(15000.0)</text>
<text text-anchor="start" x="332.6875" y="-313" font-family="Helvetica,sans-Serif" font-size="10.00" fill="#000000">CIRCASIA(18000.0)</text>
<text text-anchor="start" x="333.7975" y="-301" font-family="Helvetica,sans-Serif" font-size="10.00" fill="#000000">FILANDIA(22000.0)</text>
<text text-anchor="start" x="334.9065" y="-289" font-family="Helvetica,sans-Serif" font-size="10.00" fill="#000000">GENOVA(70000.0)</text>
<text text-anchor="start" x="332.962" y="-277" font-family="Helvetica,sans-Serif" font-size="10.00" fill="#000000">SALENTO(50000.0)</text>
<text text-anchor="start" x="341.8505" y="-265" font-family="Helvetica,sans-Serif" font-size="10.00" fill="#000000">PIJAO(40000.0)</text>
<text text-anchor="start" x="331.022" y="-253" font-family="Helvetica,sans-Serif" font-size="10.00" fill="#000000">CORDOBA(30000.0)</text>
<text text-anchor="start" x="324.6285" y="-241" font-family="Helvetica,sans-Serif" font-size="10.00" fill="#000000">BUENAVISTA(35000.0)</text>
</g>
<!-- A2 -->
<g id="node3" class="node">
<title>A2</title>
<polygon fill="none" stroke="#000000" points="495.194,-236 495.194,-280 652.194,-280 652.194,-236 495.194,-236"/>
<text text-anchor="start" x="549.513" y="-261" font-family="Helvetica,sans-Serif" font-size="10.00" fill="#000000">&lt;&lt;enum&gt;&gt;</text>
<text text-anchor="start" x="555.918" y="-249" font-family="Helvetica,sans-Serif" font-size="10.00" fill="#000000">Material</text>
<polygon fill="none" stroke="#000000" points="495.194,-168 495.194,-236 652.194,-236 652.194,-168 495.194,-168"/>
<text text-anchor="start" x="535.076" y="-217" font-family="Helvetica,sans-Serif" font-size="10.00" fill="#000000">ARENA(10000.0)</text>
<text text-anchor="start" x="505.076" y="-205" font-family="Helvetica,sans-Serif" font-size="10.00" fill="#000000">GRAMA_SINTETICA(35000.0)</text>
<text text-anchor="start" x="507.855" y="-193" font-family="Helvetica,sans-Serif" font-size="10.00" fill="#000000">GRAMA_NATURAL(20000.0)</text>
<text text-anchor="start" x="529.517" y="-181" font-family="Helvetica,sans-Serif" font-size="10.00" fill="#000000">ASFALTO(40000.0)</text>
</g>
<!-- A3&#45;&gt;A1 -->
<g id="edge2" class="edge">
<title>A3&#45;&gt;A1</title>
<path fill="none" stroke="#000000" d="M260.0711,-275.6346C272.5241,-281.6276 286.5192,-288.3628 300.3862,-295.0362"/>
<polygon fill="#000000" stroke="#000000" points="309.4628,-299.4044 298.5005,-299.1227 304.9574,-297.2361 300.452,-295.0678 300.452,-295.0678 300.452,-295.0678 304.9574,-297.2361 302.4034,-291.013 309.4628,-299.4044 309.4628,-299.4044"/>
<text text-anchor="middle" x="289.4643" y="-296.1603" font-family="Helvetica,sans-Serif" font-size="10.00" fill="#000000">1</text>
<text text-anchor="middle" x="280.0696" y="-272.8786" font-family="Helvetica,sans-Serif" font-size="10.00" fill="#000000">*</text>
</g>
<!-- A4 -->
<g id="node5" class="node">
<title>A4</title>
<polygon fill="none" stroke="#000000" points="335.194,-178 335.194,-210 420.194,-210 420.194,-178 335.194,-178"/>
<text text-anchor="start" x="347.684" y="-191" font-family="Helvetica,sans-Serif" font-size="10.00" fill="#000000">ZonasParque</text>
<polygon fill="none" stroke="#000000" points="335.194,-146 335.194,-178 420.194,-178 420.194,-146 335.194,-146"/>
<text text-anchor="start" x="345.19" y="-159" font-family="Helvetica,sans-Serif" font-size="10.00" fill="#000000">&#45;nombre:Texto</text>
</g>
<!-- A3&#45;&gt;A4 -->
<g id="edge3" class="edge">
<title>A3&#45;&gt;A4</title>
<path fill="none" stroke="#000000" d="M270.9355,-229.1369C288.3958,-220.7341 307.733,-211.4281 325.073,-203.0832"/>
<polygon fill="none" stroke="#000000" points="270.8841,-229.1616 267.2122,-235.3678 260.0711,-234.3654 263.743,-228.1592 270.8841,-229.1616"/>
<polygon fill="#000000" stroke="#000000" points="334.4762,-198.5579 327.4168,-206.9493 329.9708,-200.7262 325.4654,-202.8944 325.4654,-202.8944 325.4654,-202.8944 329.9708,-200.7262 323.514,-198.8396 334.4762,-198.5579 334.4762,-198.5579"/>
<text text-anchor="middle" x="321.8084" y="-211.0345" font-family="Helvetica,sans-Serif" font-size="10.00" fill="#000000">*</text>
<text text-anchor="middle" x="272.7389" y="-215.8888" font-family="Helvetica,sans-Serif" font-size="10.00" fill="#000000">1</text>
</g>
<!-- A4&#45;&gt;A2 -->
<g id="edge5" class="edge">
<title>A4&#45;&gt;A2</title>
<path fill="none" stroke="#000000" d="M419.7231,-187.9813C438.7496,-192.4467 461.9356,-197.8883 484.4625,-203.1753"/>
<polygon fill="#000000" stroke="#000000" points="494.4043,-205.5085 483.6406,-207.6046 489.5366,-204.3661 484.6688,-203.2236 484.6688,-203.2236 484.6688,-203.2236 489.5366,-204.3661 485.697,-198.8426 494.4043,-205.5085 494.4043,-205.5085"/>
<text text-anchor="middle" x="474.8264" y="-206.5958" font-family="Helvetica,sans-Serif" font-size="10.00" fill="#000000">1</text>
<text text-anchor="middle" x="439.301" y="-180.8941" font-family="Helvetica,sans-Serif" font-size="10.00" fill="#000000">*</text>
</g>
<!-- A8 -->
<g id="node9" class="node">
<title>A8</title>
<polygon fill="none" stroke="#000000" points="627.199,-150 519.189,-150 519.189,-114 627.199,-114 627.199,-150"/>
<text text-anchor="middle" x="573.194" y="-135" font-family="Helvetica,sans-Serif" font-size="10.00" fill="#000000">&lt;&lt;abstract&gt;&gt;</text>
<text text-anchor="middle" x="573.194" y="-123" font-family="Helvetica,sans-Serif" font-size="10.00" fill="#000000">FiguraGeometrica</text>
</g>
<!-- A4&#45;&gt;A8 -->
<g id="edge4" class="edge">
<title>A4&#45;&gt;A8</title>
<path fill="none" stroke="#000000" d="M419.7231,-168.0187C445.9218,-161.87 480.007,-153.8704 509.3986,-146.9724"/>
<polygon fill="#000000" stroke="#000000" points="519.168,-144.6796 510.4608,-151.3455 514.3003,-145.822 509.4326,-146.9645 509.4326,-146.9645 509.4326,-146.9645 514.3003,-145.822 508.4043,-142.5835 519.168,-144.6796 519.168,-144.6796"/>
<text text-anchor="middle" x="503.4526" y="-154.0499" font-family="Helvetica,sans-Serif" font-size="10.00" fill="#000000">1</text>
<text text-anchor="middle" x="435.4385" y="-152.6483" font-family="Helvetica,sans-Serif" font-size="10.00" fill="#000000">*</text>
</g>
<!-- A5 -->
<g id="node6" class="node">
<title>A5</title>
<polygon fill="none" stroke="#000000" points="723.694,-220 723.694,-252 791.694,-252 791.694,-220 723.694,-220"/>
<text text-anchor="start" x="742.142" y="-233" font-family="Helvetica,sans-Serif" font-size="10.00" fill="#000000">Circulo</text>
<polygon fill="none" stroke="#000000" points="723.694,-188 723.694,-220 791.694,-220 791.694,-188 723.694,-188"/>
<text text-anchor="start" x="733.2495" y="-201" font-family="Helvetica,sans-Serif" font-size="10.00" fill="#000000">&#45;radio:Real</text>
</g>
<!-- A6 -->
<g id="node7" class="node">
<title>A6</title>
<polygon fill="none" stroke="#000000" points="721.694,-138 721.694,-170 794.694,-170 794.694,-138 721.694,-138"/>
<text text-anchor="start" x="732.9085" y="-151" font-family="Helvetica,sans-Serif" font-size="10.00" fill="#000000">Rectangulo</text>
<polygon fill="none" stroke="#000000" points="721.694,-94 721.694,-138 794.694,-138 794.694,-94 721.694,-94"/>
<text text-anchor="start" x="731.244" y="-119" font-family="Helvetica,sans-Serif" font-size="10.00" fill="#000000">&#45;ancho:Real</text>
<text text-anchor="start" x="738.4685" y="-107" font-family="Helvetica,sans-Serif" font-size="10.00" fill="#000000">alto:Real</text>
</g>
<!-- A9 -->
<g id="node10" class="node">
<title>A9</title>
<polygon fill="none" stroke="#000000" points="935.5471,-150 863.7429,-150 863.7429,-114 935.5471,-114 935.5471,-150"/>
<text text-anchor="middle" x="899.645" y="-129" font-family="Helvetica,sans-Serif" font-size="10.00" fill="#000000">Cuadrado</text>
</g>
<!-- A6&#45;&gt;A9 -->
<g id="edge9" class="edge">
<title>A6&#45;&gt;A9</title>
<path fill="none" stroke="#000000" d="M804.3541,-132C823.6575,-132 845.6904,-132 863.7044,-132"/>
<polygon fill="none" stroke="#000000" points="804.2499,-128.5001 794.2499,-132 804.2499,-135.5001 804.2499,-128.5001"/>
</g>
<!-- A7 -->
<g id="node8" class="node">
<title>A7</title>
<polygon fill="none" stroke="#000000" points="701.694,-44 701.694,-76 813.694,-76 813.694,-44 701.694,-44"/>
<text text-anchor="start" x="711.573" y="-57" font-family="Helvetica,sans-Serif" font-size="10.00" fill="#000000">TrianguloRectangulo</text>
<polygon fill="none" stroke="#000000" points="701.694,0 701.694,-44 813.694,-44 813.694,0 701.694,0"/>
<text text-anchor="start" x="733.5235" y="-25" font-family="Helvetica,sans-Serif" font-size="10.00" fill="#000000">&#45;base:Real</text>
<text text-anchor="start" x="731.86" y="-13" font-family="Helvetica,sans-Serif" font-size="10.00" fill="#000000">&#45;altura:Real</text>
</g>
<!-- A8&#45;&gt;A5 -->
<g id="edge6" class="edge">
<title>A8&#45;&gt;A5</title>
<path fill="none" stroke="#000000" d="M637.0288,-152.7983C642.0367,-154.7806 646.9771,-156.8554 651.694,-159 676.4343,-170.2487 702.9343,-185.4987 723.2492,-197.9365"/>
<polygon fill="none" stroke="#000000" points="637.9464,-149.4023 627.3557,-149.1063 635.4502,-155.9421 637.9464,-149.4023"/>
</g>
<!-- A8&#45;&gt;A6 -->
<g id="edge7" class="edge">
<title>A8&#45;&gt;A6</title>
<path fill="none" stroke="#000000" d="M637.6347,-132C665.519,-132 697.1428,-132 720.9324,-132"/>
<polygon fill="none" stroke="#000000" points="637.5522,-128.5001 627.5522,-132 637.5522,-135.5001 637.5522,-128.5001"/>
</g>
<!-- A8&#45;&gt;A7 -->
<g id="edge8" class="edge">
<title>A8&#45;&gt;A7</title>
<path fill="none" stroke="#000000" d="M617.7302,-109.3095C642.9191,-96.4761 674.6569,-80.3062 701.5394,-66.6099"/>
<polygon fill="none" stroke="#000000" points="616.0888,-106.2176 608.7675,-113.8759 619.2666,-112.4548 616.0888,-106.2176"/>
</g>
</g>
</svg>
