<?xml version="1.0" encoding="UTF-8" standalone="no"?>
<!DOCTYPE svg PUBLIC "-//W3C//DTD SVG 1.1//EN"
 "http://www.w3.org/Graphics/SVG/1.1/DTD/svg11.dtd">
<!-- Generated by graphviz version 2.40.1 (20161225.0304)
 -->
<!-- Title: G Pages: 1 -->
<svg width="771pt" height="347pt"
 viewBox="0.00 0.00 771.00 347.45" xmlns="http://www.w3.org/2000/svg" xmlns:xlink="http://www.w3.org/1999/xlink">
<g id="graph0" class="graph" transform="scale(1 1) rotate(0) translate(4 343.4524)">
<title>G</title>
<polygon fill="#ffffff" stroke="transparent" points="-4,4 -4,-343.4524 767,-343.4524 767,4 -4,4"/>
<!-- A0 -->
<g id="node1" class="node">
<title>A0</title>
<polygon fill="none" stroke="#000000" points=".5,-222 .5,-254 97.5,-254 97.5,-222 .5,-222"/>
<text text-anchor="start" x="20.1005" y="-235" font-family="Helvetica,sans-Serif" font-size="10.00" fill="#000000">Parqueadero</text>
<polygon fill="none" stroke="#000000" points=".5,-178 .5,-222 97.5,-222 97.5,-178 .5,-178"/>
<text text-anchor="start" x="16.772" y="-203" font-family="Helvetica,sans-Serif" font-size="10.00" fill="#000000">&#45;cantidad fila y</text>
<text text-anchor="start" x="10.102" y="-191" font-family="Helvetica,sans-Serif" font-size="10.00" fill="#000000">columnas: Entero</text>
</g>
<!-- A2 -->
<g id="node3" class="node">
<title>A2</title>
<polygon fill="none" stroke="#000000" points="412.5,-243 412.5,-287 495.5,-287 495.5,-243 412.5,-243"/>
<text text-anchor="start" x="424.54" y="-268" font-family="Helvetica,sans-Serif" font-size="10.00" fill="#000000">&lt;&lt;abstract&gt;&gt;</text>
<text text-anchor="start" x="434.8285" y="-256" font-family="Helvetica,sans-Serif" font-size="10.00" fill="#000000">Vehiculo</text>
<polygon fill="none" stroke="#000000" points="412.5,-199 412.5,-243 495.5,-243 495.5,-199 412.5,-199"/>
<text text-anchor="start" x="422.051" y="-224" font-family="Helvetica,sans-Serif" font-size="10.00" fill="#000000">&#45;modelo:Texto</text>
<text text-anchor="start" x="426.495" y="-212" font-family="Helvetica,sans-Serif" font-size="10.00" fill="#000000">&#45;placa:Texto</text>
</g>
<!-- A0&#45;&gt;A2 -->
<g id="edge1" class="edge">
<title>A0&#45;&gt;A2</title>
<path fill="none" stroke="#000000" d="M82.5854,-263.6133C99.4871,-283.1302 121.7055,-303.5603 147,-314 235.3283,-350.4552 271.599,-344.9599 362,-314 376.824,-308.9232 391.1018,-300.3579 403.7923,-290.8985"/>
<polygon fill="none" stroke="#000000" points="82.3941,-263.3831 75.483,-261.3246 74.7251,-254.1534 81.6361,-256.2119 82.3941,-263.3831"/>
<polygon fill="#000000" stroke="#000000" points="411.8923,-284.5808 406.7746,-294.2793 407.9497,-287.6559 404.007,-290.731 404.007,-290.731 404.007,-290.731 407.9497,-287.6559 401.2395,-287.1826 411.8923,-284.5808 411.8923,-284.5808"/>
<text text-anchor="middle" x="402.7977" y="-299.3934" font-family="Helvetica,sans-Serif" font-size="10.00" fill="#000000">*</text>
<text text-anchor="middle" x="92.8102" y="-259.6932" font-family="Helvetica,sans-Serif" font-size="10.00" fill="#000000">1</text>
</g>
<!-- A3 -->
<g id="node4" class="node">
<title>A3</title>
<polygon fill="none" stroke="#000000" points="147,-273 147,-305 219,-305 219,-273 147,-273"/>
<text text-anchor="start" x="167.4375" y="-286" font-family="Helvetica,sans-Serif" font-size="10.00" fill="#000000">Puesto</text>
<polygon fill="none" stroke="#000000" points="147,-205 147,-273 219,-273 219,-205 147,-205"/>
<text text-anchor="start" x="156.8905" y="-254" font-family="Helvetica,sans-Serif" font-size="10.00" fill="#000000">&#45;Posición i:</text>
<text text-anchor="start" x="168.273" y="-242" font-family="Helvetica,sans-Serif" font-size="10.00" fill="#000000">Entero</text>
<text text-anchor="start" x="156.8905" y="-230" font-family="Helvetica,sans-Serif" font-size="10.00" fill="#000000">&#45;Posición j:</text>
<text text-anchor="start" x="168.273" y="-218" font-family="Helvetica,sans-Serif" font-size="10.00" fill="#000000">Entero</text>
</g>
<!-- A0&#45;&gt;A3 -->
<g id="edge4" class="edge">
<title>A0&#45;&gt;A3</title>
<path fill="none" stroke="#000000" d="M108.801,-233.4851C118.3146,-236.2436 128.0157,-239.0566 137.1317,-241.6999"/>
<polygon fill="none" stroke="#000000" points="108.5829,-233.4219 101.7062,-235.5926 97.0576,-230.0799 103.9342,-227.9091 108.5829,-233.4219"/>
<polygon fill="#000000" stroke="#000000" points="146.7574,-244.491 135.8998,-246.028 141.9552,-243.0985 137.153,-241.706 137.153,-241.706 137.153,-241.706 141.9552,-243.0985 138.4063,-237.384 146.7574,-244.491 146.7574,-244.491"/>
<text text-anchor="middle" x="126.9944" y="-244.561" font-family="Helvetica,sans-Serif" font-size="10.00" fill="#000000">*</text>
<text text-anchor="middle" x="116.8206" y="-224.0099" font-family="Helvetica,sans-Serif" font-size="10.00" fill="#000000">1</text>
</g>
<!-- A7 -->
<g id="node8" class="node">
<title>A7</title>
<polygon fill="none" stroke="#000000" points="555,-128 555,-160 635,-160 635,-128 555,-128"/>
<text text-anchor="start" x="568.0515" y="-141" font-family="Helvetica,sans-Serif" font-size="10.00" fill="#000000">Propietario &#160;</text>
<polygon fill="none" stroke="#000000" points="555,0 555,-128 635,-128 635,0 555,0"/>
<text text-anchor="start" x="574.999" y="-109" font-family="Helvetica,sans-Serif" font-size="10.00" fill="#000000">&#45;nombre:</text>
<text text-anchor="start" x="582.497" y="-97" font-family="Helvetica,sans-Serif" font-size="10.00" fill="#000000">Texto</text>
<text text-anchor="start" x="572.22" y="-85" font-family="Helvetica,sans-Serif" font-size="10.00" fill="#000000">&#45;apellidos:</text>
<text text-anchor="start" x="582.497" y="-73" font-family="Helvetica,sans-Serif" font-size="10.00" fill="#000000">Texto</text>
<text text-anchor="start" x="588.057" y="-61" font-family="Helvetica,sans-Serif" font-size="10.00" fill="#000000">&#45;id:</text>
<text text-anchor="start" x="582.497" y="-49" font-family="Helvetica,sans-Serif" font-size="10.00" fill="#000000">Texto</text>
<text text-anchor="start" x="577.7785" y="-37" font-family="Helvetica,sans-Serif" font-size="10.00" fill="#000000">&#45;correo:</text>
<text text-anchor="start" x="582.497" y="-25" font-family="Helvetica,sans-Serif" font-size="10.00" fill="#000000">Texto</text>
<text text-anchor="start" x="564.7115" y="-13" font-family="Helvetica,sans-Serif" font-size="10.00" fill="#000000">&#45;edad: Entero</text>
</g>
<!-- A0&#45;&gt;A7 -->
<g id="edge2" class="edge">
<title>A0&#45;&gt;A7</title>
<path fill="none" stroke="#000000" d="M84.7829,-177.6744C125.3,-137.9292 194.9733,-78.2704 269,-54 362.8452,-23.2319 479.6679,-46.2795 544.9167,-64.2155"/>
<polygon fill="#000000" stroke="#000000" points="554.9345,-67.0412 544.0883,-68.6573 550.1222,-65.6837 545.31,-64.3263 545.31,-64.3263 545.31,-64.3263 550.1222,-65.6837 546.5317,-59.9953 554.9345,-67.0412 554.9345,-67.0412"/>
<text text-anchor="middle" x="535.1944" y="-67.2553" font-family="Helvetica,sans-Serif" font-size="10.00" fill="#000000">*</text>
<text text-anchor="middle" x="92.0197" y="-156.0296" font-family="Helvetica,sans-Serif" font-size="10.00" fill="#000000">1</text>
</g>
<!-- A8 -->
<g id="node9" class="node">
<title>A8</title>
<polygon fill="none" stroke="#000000" points="272.5,-273 272.5,-305 358.5,-305 358.5,-273 272.5,-273"/>
<text text-anchor="start" x="296.8885" y="-286" font-family="Helvetica,sans-Serif" font-size="10.00" fill="#000000">Registro</text>
<polygon fill="none" stroke="#000000" points="272.5,-205 272.5,-273 358.5,-273 358.5,-205 272.5,-205"/>
<text text-anchor="start" x="282.4365" y="-254" font-family="Helvetica,sans-Serif" font-size="10.00" fill="#000000">&#45;fecha ingreso:</text>
<text text-anchor="start" x="301.607" y="-242" font-family="Helvetica,sans-Serif" font-size="10.00" fill="#000000">Fecha</text>
<text text-anchor="start" x="285.771" y="-230" font-family="Helvetica,sans-Serif" font-size="10.00" fill="#000000">&#45;fecha salida:</text>
<text text-anchor="start" x="301.607" y="-218" font-family="Helvetica,sans-Serif" font-size="10.00" fill="#000000">Fecha</text>
</g>
<!-- A0&#45;&gt;A8 -->
<g id="edge3" class="edge">
<title>A0&#45;&gt;A8</title>
<path fill="none" stroke="#000000" d="M108.8235,-197.6643C141.8556,-190.4151 183.2287,-185.9311 219,-196 234.3506,-200.3209 249.6731,-207.8378 263.4406,-216.0881"/>
<polygon fill="none" stroke="#000000" points="108.7368,-197.6847 103.8147,-202.9548 97.057,-200.4384 101.979,-195.1683 108.7368,-197.6847"/>
<polygon fill="#000000" stroke="#000000" points="272.2479,-221.5895 261.3825,-220.1083 268.0072,-218.9406 263.7665,-216.2917 263.7665,-216.2917 263.7665,-216.2917 268.0072,-218.9406 266.1505,-212.4751 272.2479,-221.5895 272.2479,-221.5895"/>
<text text-anchor="middle" x="252.3966" y="-216.1554" font-family="Helvetica,sans-Serif" font-size="10.00" fill="#000000">*</text>
<text text-anchor="middle" x="112.7599" y="-185.0522" font-family="Helvetica,sans-Serif" font-size="10.00" fill="#000000">1</text>
</g>
<!-- A1 -->
<g id="node2" class="node">
<title>A1</title>
<polygon fill="none" stroke="#000000" points="269.5,-155 269.5,-187 362.5,-187 362.5,-155 269.5,-155"/>
<text text-anchor="start" x="303.223" y="-168" font-family="Helvetica,sans-Serif" font-size="10.00" fill="#000000">Tarifa</text>
<polygon fill="none" stroke="#000000" points="269.5,-63 269.5,-155 362.5,-155 362.5,-63 269.5,-63"/>
<text text-anchor="start" x="289.0565" y="-136" font-family="Helvetica,sans-Serif" font-size="10.00" fill="#000000">&#45;tarifa carro:</text>
<text text-anchor="start" x="279.0535" y="-124" font-family="Helvetica,sans-Serif" font-size="10.00" fill="#000000">Real,&#45;tarifa moto</text>
<text text-anchor="start" x="299.3325" y="-112" font-family="Helvetica,sans-Serif" font-size="10.00" fill="#000000">clasica:</text>
<text text-anchor="start" x="305.722" y="-100" font-family="Helvetica,sans-Serif" font-size="10.00" fill="#000000">Real</text>
<text text-anchor="start" x="289.6105" y="-88" font-family="Helvetica,sans-Serif" font-size="10.00" fill="#000000">&#45;tarica moto</text>
<text text-anchor="start" x="287.9415" y="-76" font-family="Helvetica,sans-Serif" font-size="10.00" fill="#000000">hibrida: Real</text>
</g>
<!-- A1&#45;&gt;A2 -->
<g id="edge5" class="edge">
<title>A1&#45;&gt;A2</title>
<path fill="none" stroke="#000000" d="M369.8884,-171.506C381.1425,-181.1291 392.94,-191.2168 404.008,-200.6807"/>
<polygon fill="#000000" stroke="#000000" points="362.2205,-164.9494 372.7454,-168.0281 366.0207,-168.1989 369.8209,-171.4483 369.8209,-171.4483 369.8209,-171.4483 366.0207,-168.1989 366.8964,-174.8685 362.2205,-164.9494 362.2205,-164.9494"/>
<polygon fill="#000000" stroke="#000000" points="411.92,-207.4461 401.3952,-204.3674 408.1198,-204.1967 404.3197,-200.9472 404.3197,-200.9472 404.3197,-200.9472 408.1198,-204.1967 407.2441,-197.5271 411.92,-207.4461 411.92,-207.4461"/>
</g>
<!-- A4 -->
<g id="node5" class="node">
<title>A4</title>
<polygon fill="none" stroke="#000000" points="622,-318 568,-318 568,-282 622,-282 622,-318"/>
<text text-anchor="middle" x="595" y="-297" font-family="Helvetica,sans-Serif" font-size="10.00" fill="#000000">Carro</text>
</g>
<!-- A2&#45;&gt;A4 -->
<g id="edge10" class="edge">
<title>A2&#45;&gt;A4</title>
<path fill="none" stroke="#000000" d="M504.498,-263.5434C525.9186,-272.1722 549.9652,-281.8588 567.8848,-289.0773"/>
<polygon fill="none" stroke="#000000" points="505.7728,-260.2837 495.1893,-259.7936 503.1573,-266.7766 505.7728,-260.2837"/>
</g>
<!-- A5 -->
<g id="node6" class="node">
<title>A5</title>
<polygon fill="none" stroke="#000000" points="545,-232 545,-264 645,-264 645,-232 545,-232"/>
<text text-anchor="start" x="583.887" y="-245" font-family="Helvetica,sans-Serif" font-size="10.00" fill="#000000">Moto</text>
<polygon fill="none" stroke="#000000" points="545,-200 545,-232 645,-232 645,-200 545,-200"/>
<text text-anchor="start" x="554.713" y="-213" font-family="Helvetica,sans-Serif" font-size="10.00" fill="#000000">&#45;velocidad: Entero</text>
</g>
<!-- A2&#45;&gt;A5 -->
<g id="edge11" class="edge">
<title>A2&#45;&gt;A5</title>
<path fill="none" stroke="#000000" d="M505.3098,-238.9724C518.2169,-237.969 532.032,-236.895 544.8572,-235.898"/>
<polygon fill="none" stroke="#000000" points="504.888,-235.4945 495.1893,-239.7591 505.4306,-242.4735 504.888,-235.4945"/>
</g>
<!-- A2&#45;&gt;A7 -->
<g id="edge7" class="edge">
<title>A2&#45;&gt;A7</title>
<path fill="none" stroke="#000000" d="M491.7919,-198.8899C509.2139,-178.8207 529.9884,-154.8897 548.3165,-133.7767"/>
<polygon fill="#000000" stroke="#000000" points="554.9476,-126.1381 551.7903,-136.6396 551.6699,-129.9139 548.3921,-133.6896 548.3921,-133.6896 548.3921,-133.6896 551.6699,-129.9139 544.9939,-130.7397 554.9476,-126.1381 554.9476,-126.1381"/>
</g>
<!-- A3&#45;&gt;A8 -->
<g id="edge6" class="edge">
<title>A3&#45;&gt;A8</title>
<path fill="none" stroke="#000000" d="M229.5381,-255C240.068,-255 251.329,-255 262.1166,-255"/>
<polygon fill="#000000" stroke="#000000" points="219.2062,-255 229.2063,-250.5001 224.2062,-255 229.2062,-255.0001 229.2062,-255.0001 229.2062,-255.0001 224.2062,-255 229.2062,-259.5001 219.2062,-255 219.2062,-255"/>
<polygon fill="#000000" stroke="#000000" points="272.275,-255 262.275,-259.5001 267.275,-255 262.275,-255.0001 262.275,-255.0001 262.275,-255.0001 267.275,-255 262.2749,-250.5001 272.275,-255 272.275,-255"/>
</g>
<!-- A6 -->
<g id="node7" class="node">
<title>A6</title>
<polygon fill="none" stroke="#000000" points="695,-232 695,-276 763,-276 763,-232 695,-232"/>
<text text-anchor="start" x="704.819" y="-257" font-family="Helvetica,sans-Serif" font-size="10.00" fill="#000000">&lt;&lt;enum&gt;&gt;</text>
<text text-anchor="start" x="706.7745" y="-245" font-family="Helvetica,sans-Serif" font-size="10.00" fill="#000000"> TipoMoto</text>
<polygon fill="none" stroke="#000000" points="695,-188 695,-232 763,-232 763,-188 695,-188"/>
<text text-anchor="start" x="706.219" y="-213" font-family="Helvetica,sans-Serif" font-size="10.00" fill="#000000"> CLASICA</text>
<text text-anchor="start" x="708.7235" y="-201" font-family="Helvetica,sans-Serif" font-size="10.00" fill="#000000">HIBRIDA</text>
</g>
<!-- A5&#45;&gt;A6 -->
<g id="edge9" class="edge">
<title>A5&#45;&gt;A6</title>
<path fill="none" stroke="#000000" d="M645.2779,-232C658.158,-232 671.9189,-232 684.486,-232"/>
<polygon fill="#000000" stroke="#000000" points="694.7159,-232 684.716,-236.5001 689.7159,-232 684.7159,-232.0001 684.7159,-232.0001 684.7159,-232.0001 689.7159,-232 684.7159,-227.5001 694.7159,-232 694.7159,-232"/>
</g>
<!-- A8&#45;&gt;A2 -->
<g id="edge8" class="edge">
<title>A8&#45;&gt;A2</title>
<path fill="none" stroke="#000000" d="M358.7854,-251.236C372.3972,-250.0524 387.5669,-248.7333 401.7068,-247.5038"/>
<polygon fill="#000000" stroke="#000000" points="411.7839,-246.6275 402.2114,-251.977 406.8027,-247.0607 401.8215,-247.4939 401.8215,-247.4939 401.8215,-247.4939 406.8027,-247.0607 401.4316,-243.0108 411.7839,-246.6275 411.7839,-246.6275"/>
</g>
</g>
</svg>
