<?xml version="1.0" encoding="UTF-8" standalone="no"?>
<!DOCTYPE svg PUBLIC "-//W3C//DTD SVG 1.1//EN"
 "http://www.w3.org/Graphics/SVG/1.1/DTD/svg11.dtd">
<!-- Generated by graphviz version 2.40.1 (20161225.0304)
 -->
<!-- Title: G Pages: 1 -->
<svg width="784pt" height="422pt"
 viewBox="0.00 0.00 783.80 422.00" xmlns="http://www.w3.org/2000/svg" xmlns:xlink="http://www.w3.org/1999/xlink">
<g id="graph0" class="graph" transform="scale(1 1) rotate(0) translate(4 418)">
<title>G</title>
<polygon fill="#ffffff" stroke="transparent" points="-4,4 -4,-418 779.799,-418 779.799,4 -4,4"/>
<!-- A0 -->
<g id="node1" class="node">
<title>A0</title>
<polygon fill="none" stroke="#000000" points="85.6987,-206 .1003,-206 .1003,-170 85.6987,-170 85.6987,-206"/>
<text text-anchor="middle" x="42.8995" y="-185" font-family="Helvetica,sans-Serif" font-size="10.00" fill="#000000">Parqueadero</text>
</g>
<!-- A2 -->
<g id="node3" class="node">
<title>A2</title>
<polygon fill="none" stroke="#000000" points="429.799,-300 429.799,-344 625.799,-344 625.799,-300 429.799,-300"/>
<text text-anchor="start" x="498.339" y="-325" font-family="Helvetica,sans-Serif" font-size="10.00" fill="#000000">&lt;&lt;abstract&gt;&gt;</text>
<text text-anchor="start" x="508.6275" y="-313" font-family="Helvetica,sans-Serif" font-size="10.00" fill="#000000">Vehiculo</text>
<polygon fill="none" stroke="#000000" points="429.799,-256 429.799,-300 625.799,-300 625.799,-256 429.799,-256"/>
<text text-anchor="start" x="495.85" y="-281" font-family="Helvetica,sans-Serif" font-size="10.00" fill="#000000">&#45;modelo:Texto</text>
<text text-anchor="start" x="500.294" y="-269" font-family="Helvetica,sans-Serif" font-size="10.00" fill="#000000">&#45;placa:Texto</text>
<polygon fill="none" stroke="#000000" points="429.799,-212 429.799,-256 625.799,-256 625.799,-212 429.799,-212"/>
<text text-anchor="start" x="439.31" y="-237" font-family="Helvetica,sans-Serif" font-size="10.00" fill="#000000">+constructor(modelo:Texto,placa:Texto)</text>
<text text-anchor="start" x="484.4625" y="-225" font-family="Helvetica,sans-Serif" font-size="10.00" fill="#000000">getNombre(): Texto</text>
</g>
<!-- A0&#45;&gt;A2 -->
<g id="edge1" class="edge">
<title>A0&#45;&gt;A2</title>
<path fill="none" stroke="#000000" d="M73.0742,-213.7368C115.432,-247.7813 196.4845,-305.5222 277.799,-323 324.096,-332.9511 375.5389,-326.6371 419.6655,-315.9519"/>
<polygon fill="none" stroke="#000000" points="72.9453,-213.6315 65.7681,-212.9327 63.6527,-206.0388 70.8299,-206.7377 72.9453,-213.6315"/>
<polygon fill="#000000" stroke="#000000" points="429.5464,-313.4577 420.952,-320.2684 424.6985,-314.6815 419.8506,-315.9053 419.8506,-315.9053 419.8506,-315.9053 424.6985,-314.6815 418.7491,-311.5421 429.5464,-313.4577 429.5464,-313.4577"/>
<text text-anchor="middle" x="414.0403" y="-323.0894" font-family="Helvetica,sans-Serif" font-size="10.00" fill="#000000">*</text>
<text text-anchor="middle" x="83.0372" y="-207.9624" font-family="Helvetica,sans-Serif" font-size="10.00" fill="#000000">1</text>
</g>
<!-- A3 -->
<g id="node4" class="node">
<title>A3</title>
<polygon fill="none" stroke="#000000" points="135.799,-218 135.799,-250 227.799,-250 227.799,-218 135.799,-218"/>
<text text-anchor="start" x="166.2365" y="-231" font-family="Helvetica,sans-Serif" font-size="10.00" fill="#000000">Puesto</text>
<polygon fill="none" stroke="#000000" points="135.799,-186 135.799,-218 227.799,-218 227.799,-186 135.799,-186"/>
<text text-anchor="start" x="145.6855" y="-199" font-family="Helvetica,sans-Serif" font-size="10.00" fill="#000000">&#45;Posición:Texto</text>
</g>
<!-- A0&#45;&gt;A3 -->
<g id="edge4" class="edge">
<title>A0&#45;&gt;A3</title>
<path fill="none" stroke="#000000" d="M97.4979,-199.7924C106.7329,-201.787 116.3354,-203.8609 125.6102,-205.8641"/>
<polygon fill="none" stroke="#000000" points="97.4368,-199.7792 90.7276,-202.4224 85.7073,-197.2458 92.4166,-194.6027 97.4368,-199.7792"/>
<polygon fill="#000000" stroke="#000000" points="135.5128,-208.0029 124.7881,-210.2903 130.6255,-206.9473 125.7382,-205.8917 125.7382,-205.8917 125.7382,-205.8917 130.6255,-206.9473 126.6882,-201.4931 135.5128,-208.0029 135.5128,-208.0029"/>
<text text-anchor="middle" x="116.0108" y="-209.4381" font-family="Helvetica,sans-Serif" font-size="10.00" fill="#000000">*</text>
<text text-anchor="middle" x="105.2093" y="-189.8106" font-family="Helvetica,sans-Serif" font-size="10.00" fill="#000000">1</text>
</g>
<!-- A7 -->
<g id="node8" class="node">
<title>A7</title>
<polygon fill="none" stroke="#000000" points="685.799,-128 685.799,-160 765.799,-160 765.799,-128 685.799,-128"/>
<text text-anchor="start" x="698.8505" y="-141" font-family="Helvetica,sans-Serif" font-size="10.00" fill="#000000">Propietario &#160;</text>
<polygon fill="none" stroke="#000000" points="685.799,0 685.799,-128 765.799,-128 765.799,0 685.799,0"/>
<text text-anchor="start" x="705.798" y="-109" font-family="Helvetica,sans-Serif" font-size="10.00" fill="#000000">&#45;nombre:</text>
<text text-anchor="start" x="713.296" y="-97" font-family="Helvetica,sans-Serif" font-size="10.00" fill="#000000">Texto</text>
<text text-anchor="start" x="703.019" y="-85" font-family="Helvetica,sans-Serif" font-size="10.00" fill="#000000">&#45;apellidos:</text>
<text text-anchor="start" x="713.296" y="-73" font-family="Helvetica,sans-Serif" font-size="10.00" fill="#000000">Texto</text>
<text text-anchor="start" x="718.856" y="-61" font-family="Helvetica,sans-Serif" font-size="10.00" fill="#000000">&#45;id:</text>
<text text-anchor="start" x="713.296" y="-49" font-family="Helvetica,sans-Serif" font-size="10.00" fill="#000000">Texto</text>
<text text-anchor="start" x="708.5775" y="-37" font-family="Helvetica,sans-Serif" font-size="10.00" fill="#000000">&#45;correo:</text>
<text text-anchor="start" x="713.296" y="-25" font-family="Helvetica,sans-Serif" font-size="10.00" fill="#000000">Texto</text>
<text text-anchor="start" x="695.5105" y="-13" font-family="Helvetica,sans-Serif" font-size="10.00" fill="#000000">&#45;edad: Entero</text>
</g>
<!-- A0&#45;&gt;A7 -->
<g id="edge2" class="edge">
<title>A0&#45;&gt;A7</title>
<path fill="none" stroke="#000000" d="M79.6287,-169.8475C124.9486,-148.4566 204.9596,-113.9382 277.799,-99 419.6763,-69.9033 591.9459,-73.0629 675.5031,-76.9626"/>
<polygon fill="#000000" stroke="#000000" points="685.7282,-77.4645 675.5195,-81.4687 680.7342,-77.2193 675.7402,-76.9741 675.7402,-76.9741 675.7402,-76.9741 680.7342,-77.2193 675.9609,-72.4795 685.7282,-77.4645 685.7282,-77.4645"/>
<text text-anchor="middle" x="667.2094" y="-82.018" font-family="Helvetica,sans-Serif" font-size="10.00" fill="#000000">*</text>
<text text-anchor="middle" x="92.5079" y="-151.5464" font-family="Helvetica,sans-Serif" font-size="10.00" fill="#000000">1</text>
</g>
<!-- A8 -->
<g id="node9" class="node">
<title>A8</title>
<polygon fill="none" stroke="#000000" points="285.799,-176 285.799,-208 371.799,-208 371.799,-176 285.799,-176"/>
<text text-anchor="start" x="310.1875" y="-189" font-family="Helvetica,sans-Serif" font-size="10.00" fill="#000000">Registro</text>
<polygon fill="none" stroke="#000000" points="285.799,-108 285.799,-176 371.799,-176 371.799,-108 285.799,-108"/>
<text text-anchor="start" x="295.7355" y="-157" font-family="Helvetica,sans-Serif" font-size="10.00" fill="#000000">&#45;fecha ingreso:</text>
<text text-anchor="start" x="314.906" y="-145" font-family="Helvetica,sans-Serif" font-size="10.00" fill="#000000">Fecha</text>
<text text-anchor="start" x="299.07" y="-133" font-family="Helvetica,sans-Serif" font-size="10.00" fill="#000000">&#45;fecha salida:</text>
<text text-anchor="start" x="314.906" y="-121" font-family="Helvetica,sans-Serif" font-size="10.00" fill="#000000">Fecha</text>
</g>
<!-- A0&#45;&gt;A8 -->
<g id="edge3" class="edge">
<title>A0&#45;&gt;A8</title>
<path fill="none" stroke="#000000" d="M98.0201,-181.2915C110.4415,-179.8304 123.5681,-178.326 135.799,-177 182.9649,-171.8865 236.6807,-166.6458 275.4464,-162.9672"/>
<polygon fill="none" stroke="#000000" points="97.8097,-181.3164 92.3226,-185.9954 85.8932,-182.73 91.3802,-178.0511 97.8097,-181.3164"/>
<polygon fill="#000000" stroke="#000000" points="285.4654,-162.0196 275.9335,-167.4413 280.4876,-162.4905 275.5098,-162.9613 275.5098,-162.9613 275.5098,-162.9613 280.4876,-162.4905 275.086,-158.4813 285.4654,-162.0196 285.4654,-162.0196"/>
<text text-anchor="middle" x="268.2156" y="-169.1411" font-family="Helvetica,sans-Serif" font-size="10.00" fill="#000000">*</text>
<text text-anchor="middle" x="102.8975" y="-169.2014" font-family="Helvetica,sans-Serif" font-size="10.00" fill="#000000">1</text>
</g>
<!-- A1 -->
<g id="node2" class="node">
<title>A1</title>
<polygon fill="none" stroke="#000000" points="277.799,-270 277.799,-314 379.799,-314 379.799,-270 277.799,-270"/>
<text text-anchor="start" x="304.618" y="-295" font-family="Helvetica,sans-Serif" font-size="10.00" fill="#000000">&lt;&lt;enum&gt;&gt;</text>
<text text-anchor="start" x="287.685" y="-283" font-family="Helvetica,sans-Serif" font-size="10.00" fill="#000000">ESTADOPUESTO</text>
<polygon fill="none" stroke="#000000" points="277.799,-226 277.799,-270 379.799,-270 379.799,-226 277.799,-226"/>
<text text-anchor="start" x="303.5225" y="-251" font-family="Helvetica,sans-Serif" font-size="10.00" fill="#000000">OCUPADO</text>
<text text-anchor="start" x="314.3515" y="-239" font-family="Helvetica,sans-Serif" font-size="10.00" fill="#000000">LIBRE</text>
</g>
<!-- A4 -->
<g id="node5" class="node">
<title>A4</title>
<polygon fill="none" stroke="#000000" points="752.799,-414 698.799,-414 698.799,-378 752.799,-378 752.799,-414"/>
<text text-anchor="middle" x="725.799" y="-393" font-family="Helvetica,sans-Serif" font-size="10.00" fill="#000000">Carro</text>
</g>
<!-- A2&#45;&gt;A4 -->
<g id="edge10" class="edge">
<title>A2&#45;&gt;A4</title>
<path fill="none" stroke="#000000" d="M634.9969,-344.8859C648.6607,-353.1237 662.5106,-361.3349 675.799,-369 683.1482,-373.2392 691.2023,-377.6772 698.6584,-381.7021"/>
<polygon fill="none" stroke="#000000" points="636.4201,-341.6563 626.0524,-339.4742 632.7965,-347.6454 636.4201,-341.6563"/>
</g>
<!-- A5 -->
<g id="node6" class="node">
<title>A5</title>
<polygon fill="none" stroke="#000000" points="675.799,-328 675.799,-360 775.799,-360 775.799,-328 675.799,-328"/>
<text text-anchor="start" x="714.686" y="-341" font-family="Helvetica,sans-Serif" font-size="10.00" fill="#000000">Moto</text>
<polygon fill="none" stroke="#000000" points="675.799,-296 675.799,-328 775.799,-328 775.799,-296 675.799,-296"/>
<text text-anchor="start" x="685.512" y="-309" font-family="Helvetica,sans-Serif" font-size="10.00" fill="#000000">&#45;velocidad: Entero</text>
</g>
<!-- A2&#45;&gt;A5 -->
<g id="edge11" class="edge">
<title>A2&#45;&gt;A5</title>
<path fill="none" stroke="#000000" d="M636.0025,-305.3241C649.7999,-308.8083 663.3568,-312.2318 675.5888,-315.3207"/>
<polygon fill="none" stroke="#000000" points="636.4815,-301.8353 625.9289,-302.7803 634.7676,-308.6222 636.4815,-301.8353"/>
</g>
<!-- A6 -->
<g id="node7" class="node">
<title>A6</title>
<polygon fill="none" stroke="#000000" points="680.799,-234 680.799,-278 771.799,-278 771.799,-234 680.799,-234"/>
<text text-anchor="start" x="702.118" y="-259" font-family="Helvetica,sans-Serif" font-size="10.00" fill="#000000">&lt;&lt;enum&gt;&gt;</text>
<text text-anchor="start" x="707.132" y="-247" font-family="Helvetica,sans-Serif" font-size="10.00" fill="#000000">PRECIO</text>
<polygon fill="none" stroke="#000000" points="680.799,-178 680.799,-234 771.799,-234 771.799,-178 680.799,-178"/>
<text text-anchor="start" x="697.409" y="-215" font-family="Helvetica,sans-Serif" font-size="10.00" fill="#000000">CARO(3000)</text>
<text text-anchor="start" x="691.5755" y="-203" font-family="Helvetica,sans-Serif" font-size="10.00" fill="#000000">HIBRIDA(2700)</text>
<text text-anchor="start" x="690.4605" y="-191" font-family="Helvetica,sans-Serif" font-size="10.00" fill="#000000">CLASICA(2500)</text>
</g>
<!-- A2&#45;&gt;A6 -->
<g id="edge9" class="edge">
<title>A2&#45;&gt;A6</title>
<path fill="none" stroke="#000000" d="M625.9289,-253.2197C641.1877,-249.3665 656.474,-245.5063 670.3378,-242.0054"/>
<polygon fill="#000000" stroke="#000000" points="680.1607,-239.5248 671.5668,-246.3363 675.3128,-240.7491 670.465,-241.9733 670.465,-241.9733 670.465,-241.9733 675.3128,-240.7491 669.3632,-237.6103 680.1607,-239.5248 680.1607,-239.5248"/>
</g>
<!-- A2&#45;&gt;A7 -->
<g id="edge7" class="edge">
<title>A2&#45;&gt;A7</title>
<path fill="none" stroke="#000000" d="M594.0054,-211.7936C621.6322,-184.1668 653.1001,-152.6989 678.3575,-127.4415"/>
<polygon fill="#000000" stroke="#000000" points="685.646,-120.153 681.7569,-130.4061 682.1104,-123.6886 678.5749,-127.2241 678.5749,-127.2241 678.5749,-127.2241 682.1104,-123.6886 675.3929,-124.0421 685.646,-120.153 685.646,-120.153"/>
</g>
<!-- A3&#45;&gt;A1 -->
<g id="edge5" class="edge">
<title>A3&#45;&gt;A1</title>
<path fill="none" stroke="#000000" d="M227.9074,-234.3105C240.6452,-238.8164 254.6639,-243.7753 268.0945,-248.5263"/>
<polygon fill="#000000" stroke="#000000" points="277.7433,-251.9395 266.8151,-252.8469 273.0296,-250.272 268.3158,-248.6045 268.3158,-248.6045 268.3158,-248.6045 273.0296,-250.272 269.8165,-244.3621 277.7433,-251.9395 277.7433,-251.9395"/>
</g>
<!-- A3&#45;&gt;A8 -->
<g id="edge6" class="edge">
<title>A3&#45;&gt;A8</title>
<path fill="none" stroke="#000000" d="M237.5793,-195.2325C250.1867,-190.0867 263.5337,-184.6389 276.0132,-179.5452"/>
<polygon fill="#000000" stroke="#000000" points="227.9074,-199.1802 235.4653,-191.2349 232.5366,-197.2907 237.1659,-195.4012 237.1659,-195.4012 237.1659,-195.4012 232.5366,-197.2907 238.8664,-199.5675 227.9074,-199.1802 227.9074,-199.1802"/>
<polygon fill="#000000" stroke="#000000" points="285.3606,-175.73 277.8027,-183.6753 280.7313,-177.6195 276.1021,-179.509 276.1021,-179.509 276.1021,-179.509 280.7313,-177.6195 274.4015,-175.3427 285.3606,-175.73 285.3606,-175.73"/>
</g>
<!-- A8&#45;&gt;A2 -->
<g id="edge8" class="edge">
<title>A8&#45;&gt;A2</title>
<path fill="none" stroke="#000000" d="M371.979,-184.0382C386.4832,-192.7844 403.3681,-202.9663 420.5629,-213.335"/>
<polygon fill="#000000" stroke="#000000" points="429.572,-218.7677 418.6847,-217.4573 425.2903,-216.1857 421.0085,-213.6037 421.0085,-213.6037 421.0085,-213.6037 425.2903,-216.1857 423.3323,-209.7501 429.572,-218.7677 429.572,-218.7677"/>
</g>
</g>
</svg>
