<?xml version="1.0" encoding="UTF-8" standalone="no"?>
<!DOCTYPE svg PUBLIC "-//W3C//DTD SVG 1.1//EN"
 "http://www.w3.org/Graphics/SVG/1.1/DTD/svg11.dtd">
<!-- Generated by graphviz version 2.40.1 (20161225.0304)
 -->
<!-- Title: G Pages: 1 -->
<svg width="1676pt" height="612pt"
 viewBox="0.00 0.00 1676.00 612.00" xmlns="http://www.w3.org/2000/svg" xmlns:xlink="http://www.w3.org/1999/xlink">
<g id="graph0" class="graph" transform="scale(1 1) rotate(0) translate(4 608)">
<title>G</title>
<polygon fill="#ffffff" stroke="transparent" points="-4,4 -4,-608 1672,-608 1672,4 -4,4"/>
<!-- A0 -->
<g id="node1" class="node">
<title>A0</title>
<polygon fill="none" stroke="#000000" points="0,-419 0,-451 264,-451 264,-419 0,-419"/>
<text text-anchor="start" x="83.653" y="-432" font-family="Helvetica,sans-Serif" font-size="10.00" fill="#000000">ProyectoGobernacion</text>
<polygon fill="none" stroke="#000000" points="0,-399 0,-419 264,-419 264,-399 0,-399"/>
<polygon fill="none" stroke="#000000" points="0,-307 0,-399 264,-399 264,-307 0,-307"/>
<text text-anchor="start" x="24.0495" y="-380" font-family="Helvetica,sans-Serif" font-size="10.00" fill="#000000">+addParqueInfantil(parqueInfantil:ParqueInfantil)</text>
<text text-anchor="start" x="39.614" y="-368" font-family="Helvetica,sans-Serif" font-size="10.00" fill="#000000">+getParque(nombre:Texto):ParqueInfantil</text>
<text text-anchor="start" x="9.8945" y="-356" font-family="Helvetica,sans-Serif" font-size="10.00" fill="#000000">+getParquesMunicipio(municipio:Texto):ParqueInfantil*</text>
<text text-anchor="start" x="16.8275" y="-344" font-family="Helvetica,sans-Serif" font-size="10.00" fill="#000000">+getParquesOrdenValorAscendete():ParqueInfantil*</text>
<text text-anchor="start" x="65.4675" y="-332" font-family="Helvetica,sans-Serif" font-size="10.00" fill="#000000">+calcularValorProyecto():Real</text>
<text text-anchor="start" x="36.149" y="-320" font-family="Helvetica,sans-Serif" font-size="10.00" fill="#000000">&#45;existeParqueInfantil(nombre:Texto):Logico</text>
</g>
<!-- A3 -->
<g id="node4" class="node">
<title>A3</title>
<polygon fill="none" stroke="#000000" points="314.5,-437 314.5,-469 625.5,-469 625.5,-437 314.5,-437"/>
<text text-anchor="start" x="439.157" y="-450" font-family="Helvetica,sans-Serif" font-size="10.00" fill="#000000">ParqueInfantil</text>
<polygon fill="none" stroke="#000000" points="314.5,-393 314.5,-437 625.5,-437 625.5,-393 314.5,-393"/>
<text text-anchor="start" x="437.496" y="-418" font-family="Helvetica,sans-Serif" font-size="10.00" fill="#000000">&#45;nombre:Texto</text>
<text text-anchor="start" x="429.162" y="-406" font-family="Helvetica,sans-Serif" font-size="10.00" fill="#000000">&#45;descripcion:Texto</text>
<polygon fill="none" stroke="#000000" points="314.5,-289 314.5,-393 625.5,-393 625.5,-289 314.5,-289"/>
<text text-anchor="start" x="324.0125" y="-374" font-family="Helvetica,sans-Serif" font-size="10.00" fill="#000000">+Contructor(nombre:Texto,descripcion:Texto,municipio:Municipio)</text>
<text text-anchor="start" x="425.1335" y="-362" font-family="Helvetica,sans-Serif" font-size="10.00" fill="#000000">+getNombre():Texto</text>
<text text-anchor="start" x="416.7995" y="-350" font-family="Helvetica,sans-Serif" font-size="10.00" fill="#000000">+getDescripcion():Texto</text>
<text text-anchor="start" x="383.165" y="-338" font-family="Helvetica,sans-Serif" font-size="10.00" fill="#000000">+addZona(zonasParque:ZonasParque)</text>
<text text-anchor="start" x="423.1945" y="-326" font-family="Helvetica,sans-Serif" font-size="10.00" fill="#000000">+calcularValor():Real</text>
<text text-anchor="start" x="421.7995" y="-314" font-family="Helvetica,sans-Serif" font-size="10.00" fill="#000000">+getMunicipio():Texto</text>
<text text-anchor="start" x="377.482" y="-302" font-family="Helvetica,sans-Serif" font-size="10.00" fill="#000000">&#45;existeZonaParque(nombre:Texto):Logico</text>
</g>
<!-- A0&#45;&gt;A3 -->
<g id="edge1" class="edge">
<title>A0&#45;&gt;A3</title>
<path fill="none" stroke="#000000" d="M276.6871,-379C285.6495,-379 294.7043,-379 303.7476,-379"/>
<polygon fill="none" stroke="#000000" points="276.4203,-379.0001 270.4202,-383 264.4203,-379 270.4203,-375 276.4203,-379.0001"/>
<polygon fill="#000000" stroke="#000000" points="313.9474,-379 303.9474,-383.5001 308.9474,-379 303.9474,-379.0001 303.9474,-379.0001 303.9474,-379.0001 308.9474,-379 303.9473,-374.5001 313.9474,-379 313.9474,-379"/>
<text text-anchor="middle" x="295.8212" y="-384.4524" font-family="Helvetica,sans-Serif" font-size="10.00" fill="#000000">*</text>
<text text-anchor="middle" x="282.5464" y="-367.5476" font-family="Helvetica,sans-Serif" font-size="10.00" fill="#000000">1</text>
</g>
<!-- A1 -->
<g id="node2" class="node">
<title>A1</title>
<polygon fill="none" stroke="#000000" points="797.5,-560 797.5,-604 932.5,-604 932.5,-560 797.5,-560"/>
<text text-anchor="start" x="840.819" y="-585" font-family="Helvetica,sans-Serif" font-size="10.00" fill="#000000">&lt;&lt;enum&gt;&gt;</text>
<text text-anchor="start" x="843.889" y="-573" font-family="Helvetica,sans-Serif" font-size="10.00" fill="#000000">Municipio</text>
<polygon fill="none" stroke="#000000" points="797.5,-396 797.5,-560 932.5,-560 932.5,-396 797.5,-396"/>
<text text-anchor="start" x="831.946" y="-541" font-family="Helvetica,sans-Serif" font-size="10.00" fill="#000000">ARMENIA(0.0)</text>
<text text-anchor="start" x="819.993" y="-529" font-family="Helvetica,sans-Serif" font-size="10.00" fill="#000000">CALARCA(10000.0)</text>
<text text-anchor="start" x="807.2195" y="-517" font-family="Helvetica,sans-Serif" font-size="10.00" fill="#000000">MONTENEGRO(20000.0)</text>
<text text-anchor="start" x="817.2135" y="-505" font-family="Helvetica,sans-Serif" font-size="10.00" fill="#000000">QUIMBAYA(30000.0)</text>
<text text-anchor="start" x="822.213" y="-493" font-family="Helvetica,sans-Serif" font-size="10.00" fill="#000000">TEBAIDA(15000.0)</text>
<text text-anchor="start" x="819.9935" y="-481" font-family="Helvetica,sans-Serif" font-size="10.00" fill="#000000">CIRCASIA(18000.0)</text>
<text text-anchor="start" x="821.1035" y="-469" font-family="Helvetica,sans-Serif" font-size="10.00" fill="#000000">FILANDIA(22000.0)</text>
<text text-anchor="start" x="822.493" y="-457" font-family="Helvetica,sans-Serif" font-size="10.00" fill="#000000">GÉNOVA(70000.0)</text>
<text text-anchor="start" x="820.268" y="-445" font-family="Helvetica,sans-Serif" font-size="10.00" fill="#000000">SALENTO(50000.0)</text>
<text text-anchor="start" x="829.1565" y="-433" font-family="Helvetica,sans-Serif" font-size="10.00" fill="#000000">PIJAO(40000.0)</text>
<text text-anchor="start" x="818.328" y="-421" font-family="Helvetica,sans-Serif" font-size="10.00" fill="#000000">CORDOBA(30000.0)</text>
<text text-anchor="start" x="811.9345" y="-409" font-family="Helvetica,sans-Serif" font-size="10.00" fill="#000000">BUENAVISTA(35000.0)</text>
<polygon fill="none" stroke="#000000" points="797.5,-364 797.5,-396 932.5,-396 932.5,-364 797.5,-364"/>
<text text-anchor="start" x="814.8495" y="-377" font-family="Helvetica,sans-Serif" font-size="10.00" fill="#000000">+getSobrecosto():Real</text>
</g>
<!-- A2 -->
<g id="node3" class="node">
<title>A2</title>
<polygon fill="none" stroke="#000000" points="1104,-366 1104,-410 1266,-410 1266,-366 1104,-366"/>
<text text-anchor="start" x="1160.819" y="-391" font-family="Helvetica,sans-Serif" font-size="10.00" fill="#000000">&lt;&lt;enum&gt;&gt;</text>
<text text-anchor="start" x="1167.224" y="-379" font-family="Helvetica,sans-Serif" font-size="10.00" fill="#000000">Material</text>
<polygon fill="none" stroke="#000000" points="1104,-298 1104,-366 1266,-366 1266,-298 1104,-298"/>
<text text-anchor="start" x="1146.382" y="-347" font-family="Helvetica,sans-Serif" font-size="10.00" fill="#000000">ARENA(10000.0)</text>
<text text-anchor="start" x="1116.382" y="-335" font-family="Helvetica,sans-Serif" font-size="10.00" fill="#000000">GRAMA_SINTETICA(35000.0)</text>
<text text-anchor="start" x="1119.161" y="-323" font-family="Helvetica,sans-Serif" font-size="10.00" fill="#000000">GRAMA_NATURAL(20000.0)</text>
<text text-anchor="start" x="1140.823" y="-311" font-family="Helvetica,sans-Serif" font-size="10.00" fill="#000000">ASFALTO(40000.0)</text>
<polygon fill="none" stroke="#000000" points="1104,-266 1104,-298 1266,-298 1266,-266 1104,-266"/>
<text text-anchor="start" x="1113.7395" y="-279" font-family="Helvetica,sans-Serif" font-size="10.00" fill="#000000">+getValorMetroCuadrado():Real</text>
</g>
<!-- A3&#45;&gt;A1 -->
<g id="edge2" class="edge">
<title>A3&#45;&gt;A1</title>
<path fill="none" stroke="#000000" d="M625.0474,-420.3481C680.56,-435.1046 740.7084,-451.0934 786.8352,-463.3549"/>
<polygon fill="#000000" stroke="#000000" points="796.755,-465.9918 785.9345,-467.7717 791.9228,-464.7073 787.0906,-463.4227 787.0906,-463.4227 787.0906,-463.4227 791.9228,-464.7073 788.2467,-459.0738 796.755,-465.9918 796.755,-465.9918"/>
<text text-anchor="middle" x="777.0658" y="-466.5039" font-family="Helvetica,sans-Serif" font-size="10.00" fill="#000000">1</text>
<text text-anchor="middle" x="644.7367" y="-413.836" font-family="Helvetica,sans-Serif" font-size="10.00" fill="#000000">*</text>
</g>
<!-- A4 -->
<g id="node5" class="node">
<title>A4</title>
<polygon fill="none" stroke="#000000" points="675.5,-314 675.5,-346 1054.5,-346 1054.5,-314 675.5,-314"/>
<text text-anchor="start" x="834.99" y="-327" font-family="Helvetica,sans-Serif" font-size="10.00" fill="#000000">ZonasParque</text>
<polygon fill="none" stroke="#000000" points="675.5,-282 675.5,-314 1054.5,-314 1054.5,-282 675.5,-282"/>
<text text-anchor="start" x="832.496" y="-295" font-family="Helvetica,sans-Serif" font-size="10.00" fill="#000000">&#45;nombre:Texto</text>
<polygon fill="none" stroke="#000000" points="675.5,-202 675.5,-282 1054.5,-282 1054.5,-202 675.5,-202"/>
<text text-anchor="start" x="685.1265" y="-263" font-family="Helvetica,sans-Serif" font-size="10.00" fill="#000000">+Contructor(nombre:Texto,figuraGeometrica:FiguraGeometrica,material:Material)</text>
<text text-anchor="start" x="820.1335" y="-251" font-family="Helvetica,sans-Serif" font-size="10.00" fill="#000000">+getNombre():Texto</text>
<text text-anchor="start" x="818.1945" y="-239" font-family="Helvetica,sans-Serif" font-size="10.00" fill="#000000">+calcularValor():Real</text>
<text text-anchor="start" x="814.8615" y="-227" font-family="Helvetica,sans-Serif" font-size="10.00" fill="#000000">+getMaterial():Material</text>
<text text-anchor="start" x="784.5755" y="-215" font-family="Helvetica,sans-Serif" font-size="10.00" fill="#000000">+getFormaZona():FiguraGeometrica</text>
</g>
<!-- A3&#45;&gt;A4 -->
<g id="edge3" class="edge">
<title>A3&#45;&gt;A4</title>
<path fill="none" stroke="#000000" d="M636.9538,-334.487C646.2148,-332.0252 655.5659,-329.5394 664.9233,-327.052"/>
<polygon fill="none" stroke="#000000" points="636.6447,-334.5691 631.8737,-339.9763 625.0474,-337.6519 629.8184,-332.2447 636.6447,-334.5691"/>
<polygon fill="#000000" stroke="#000000" points="674.6734,-324.4602 666.1651,-331.3783 669.8412,-325.7448 665.009,-327.0293 665.009,-327.0293 665.009,-327.0293 669.8412,-325.7448 663.8529,-322.6804 674.6734,-324.4602 674.6734,-324.4602"/>
<text text-anchor="middle" x="659.327" y="-334.2856" font-family="Helvetica,sans-Serif" font-size="10.00" fill="#000000">*</text>
<text text-anchor="middle" x="640.3938" y="-321.8266" font-family="Helvetica,sans-Serif" font-size="10.00" fill="#000000">1</text>
</g>
<!-- A4&#45;&gt;A2 -->
<g id="edge5" class="edge">
<title>A4&#45;&gt;A2</title>
<path fill="none" stroke="#000000" d="M1054.1781,-311.8764C1067.8293,-314.6024 1081.1854,-317.2695 1093.8317,-319.7948"/>
<polygon fill="#000000" stroke="#000000" points="1103.8136,-321.7881 1093.126,-324.2426 1098.9104,-320.8089 1094.0072,-319.8298 1094.0072,-319.8298 1094.0072,-319.8298 1098.9104,-320.8089 1094.8885,-315.4169 1103.8136,-321.7881 1103.8136,-321.7881"/>
<text text-anchor="middle" x="1084.3833" y="-323.5273" font-family="Helvetica,sans-Serif" font-size="10.00" fill="#000000">1</text>
<text text-anchor="middle" x="1073.6085" y="-304.1372" font-family="Helvetica,sans-Serif" font-size="10.00" fill="#000000">*</text>
</g>
<!-- A5 -->
<g id="node6" class="node">
<title>A5</title>
<polygon fill="none" stroke="#000000" points="1130,-204 1130,-248 1241,-248 1241,-204 1130,-204"/>
<text text-anchor="start" x="1156.04" y="-229" font-family="Helvetica,sans-Serif" font-size="10.00" fill="#000000">&lt;&lt;abstract&gt;&gt;</text>
<text text-anchor="start" x="1145.4975" y="-217" font-family="Helvetica,sans-Serif" font-size="10.00" fill="#000000">FiguraGeometrica</text>
<polygon fill="none" stroke="#000000" points="1130,-172 1130,-204 1241,-204 1241,-172 1130,-172"/>
<text text-anchor="start" x="1139.804" y="-185" font-family="Helvetica,sans-Serif" font-size="10.00" fill="#000000">+calcularArea():Real</text>
</g>
<!-- A4&#45;&gt;A5 -->
<g id="edge4" class="edge">
<title>A4&#45;&gt;A5</title>
<path fill="none" stroke="#000000" d="M1054.1781,-236.1236C1077.4278,-231.4809 1099.8216,-227.0091 1119.3104,-223.1174"/>
<polygon fill="#000000" stroke="#000000" points="1129.2261,-221.1374 1120.3009,-227.5086 1124.3229,-222.1165 1119.4197,-223.0957 1119.4197,-223.0957 1119.4197,-223.0957 1124.3229,-222.1165 1118.5385,-218.6828 1129.2261,-221.1374 1129.2261,-221.1374"/>
<text text-anchor="middle" x="1113.106" y="-229.9756" font-family="Helvetica,sans-Serif" font-size="10.00" fill="#000000">1</text>
<text text-anchor="middle" x="1070.2982" y="-221.2853" font-family="Helvetica,sans-Serif" font-size="10.00" fill="#000000">*</text>
</g>
<!-- A6 -->
<g id="node7" class="node">
<title>A6</title>
<polygon fill="none" stroke="#000000" points="1340,-364 1340,-396 1469,-396 1469,-364 1340,-364"/>
<text text-anchor="start" x="1388.948" y="-377" font-family="Helvetica,sans-Serif" font-size="10.00" fill="#000000">Circulo</text>
<polygon fill="none" stroke="#000000" points="1340,-332 1340,-364 1469,-364 1469,-332 1340,-332"/>
<text text-anchor="start" x="1380.0555" y="-345" font-family="Helvetica,sans-Serif" font-size="10.00" fill="#000000">&#45;radio:Real</text>
<polygon fill="none" stroke="#000000" points="1340,-288 1340,-332 1469,-332 1469,-288 1340,-288"/>
<text text-anchor="start" x="1349.636" y="-313" font-family="Helvetica,sans-Serif" font-size="10.00" fill="#000000">+Constructor(radio:Real)</text>
<text text-anchor="start" x="1358.804" y="-301" font-family="Helvetica,sans-Serif" font-size="10.00" fill="#000000">+calcularArea():Real</text>
</g>
<!-- A5&#45;&gt;A6 -->
<g id="edge6" class="edge">
<title>A5&#45;&gt;A6</title>
<path fill="none" stroke="#000000" d="M1249.6128,-247.2869C1255.1663,-250.5536 1260.6887,-253.8241 1266,-257 1290.0295,-271.3685 1316.2269,-287.4084 1339.277,-301.6497"/>
<polygon fill="none" stroke="#000000" points="1251.2831,-244.209 1240.8862,-242.1706 1247.7427,-250.2477 1251.2831,-244.209"/>
</g>
<!-- A7 -->
<g id="node8" class="node">
<title>A7</title>
<polygon fill="none" stroke="#000000" points="1316,-238 1316,-270 1492,-270 1492,-238 1316,-238"/>
<text text-anchor="start" x="1378.7145" y="-251" font-family="Helvetica,sans-Serif" font-size="10.00" fill="#000000">Rectangulo</text>
<polygon fill="none" stroke="#000000" points="1316,-194 1316,-238 1492,-238 1492,-194 1316,-194"/>
<text text-anchor="start" x="1377.05" y="-219" font-family="Helvetica,sans-Serif" font-size="10.00" fill="#000000">&#45;ancho:Real</text>
<text text-anchor="start" x="1384.2745" y="-207" font-family="Helvetica,sans-Serif" font-size="10.00" fill="#000000">alto:Real</text>
<polygon fill="none" stroke="#000000" points="1316,-150 1316,-194 1492,-194 1492,-150 1316,-150"/>
<text text-anchor="start" x="1325.5155" y="-175" font-family="Helvetica,sans-Serif" font-size="10.00" fill="#000000">+Constructor(ancho:Real,alto:Real)</text>
<text text-anchor="start" x="1358.304" y="-163" font-family="Helvetica,sans-Serif" font-size="10.00" fill="#000000">+calcularArea():Real</text>
</g>
<!-- A5&#45;&gt;A7 -->
<g id="edge7" class="edge">
<title>A5&#45;&gt;A7</title>
<path fill="none" stroke="#000000" d="M1250.6798,-210C1271.1199,-210 1293.9995,-210 1315.7207,-210"/>
<polygon fill="none" stroke="#000000" points="1250.5461,-206.5001 1240.5461,-210 1250.546,-213.5001 1250.5461,-206.5001"/>
</g>
<!-- A8 -->
<g id="node9" class="node">
<title>A8</title>
<polygon fill="none" stroke="#000000" points="1342,-100 1342,-132 1467,-132 1467,-100 1342,-100"/>
<text text-anchor="start" x="1358.379" y="-113" font-family="Helvetica,sans-Serif" font-size="10.00" fill="#000000">TrianguloRectangulo</text>
<polygon fill="none" stroke="#000000" points="1342,-56 1342,-100 1467,-100 1467,-56 1342,-56"/>
<text text-anchor="start" x="1380.3295" y="-81" font-family="Helvetica,sans-Serif" font-size="10.00" fill="#000000">&#45;base:Real</text>
<text text-anchor="start" x="1378.666" y="-69" font-family="Helvetica,sans-Serif" font-size="10.00" fill="#000000">&#45;altura:Real</text>
<polygon fill="none" stroke="#000000" points="1342,0 1342,-56 1467,-56 1467,0 1342,0"/>
<text text-anchor="start" x="1351.5745" y="-37" font-family="Helvetica,sans-Serif" font-size="10.00" fill="#000000">+Constructor(base:Real</text>
<text text-anchor="start" x="1378.666" y="-25" font-family="Helvetica,sans-Serif" font-size="10.00" fill="#000000">altura:Real)</text>
<text text-anchor="start" x="1358.804" y="-13" font-family="Helvetica,sans-Serif" font-size="10.00" fill="#000000">+calcularArea():Real</text>
</g>
<!-- A5&#45;&gt;A8 -->
<g id="edge8" class="edge">
<title>A5&#45;&gt;A8</title>
<path fill="none" stroke="#000000" d="M1248.9838,-167.9285C1278.0234,-148.834 1312.2587,-126.3231 1341.1597,-107.3196"/>
<polygon fill="none" stroke="#000000" points="1246.9787,-165.058 1240.5461,-173.4766 1250.8246,-170.9069 1246.9787,-165.058"/>
</g>
<!-- A9 -->
<g id="node10" class="node">
<title>A9</title>
<polygon fill="none" stroke="#000000" points="1542,-220 1542,-252 1668,-252 1668,-220 1542,-220"/>
<text text-anchor="start" x="1583.049" y="-233" font-family="Helvetica,sans-Serif" font-size="10.00" fill="#000000">Cuadrado</text>
<polygon fill="none" stroke="#000000" points="1542,-200 1542,-220 1668,-220 1668,-200 1542,-200"/>
<polygon fill="none" stroke="#000000" points="1542,-168 1542,-200 1668,-200 1668,-168 1542,-168"/>
<text text-anchor="start" x="1551.8005" y="-181" font-family="Helvetica,sans-Serif" font-size="10.00" fill="#000000">+Constructor(lado:Real)</text>
</g>
<!-- A7&#45;&gt;A9 -->
<g id="edge9" class="edge">
<title>A7&#45;&gt;A9</title>
<path fill="none" stroke="#000000" d="M1502.4233,-210C1515.876,-210 1529.3784,-210 1541.9657,-210"/>
<polygon fill="none" stroke="#000000" points="1502.1616,-206.5001 1492.1615,-210 1502.1615,-213.5001 1502.1616,-206.5001"/>
</g>
</g>
</svg>
