<?xml version="1.0" encoding="UTF-8" standalone="no"?>
<!DOCTYPE svg PUBLIC "-//W3C//DTD SVG 1.1//EN"
 "http://www.w3.org/Graphics/SVG/1.1/DTD/svg11.dtd">
<!-- Generated by graphviz version 2.40.1 (20161225.0304)
 -->
<!-- Title: G Pages: 1 -->
<svg width="671pt" height="422pt"
 viewBox="0.00 0.00 670.80 422.00" xmlns="http://www.w3.org/2000/svg" xmlns:xlink="http://www.w3.org/1999/xlink">
<g id="graph0" class="graph" transform="scale(1 1) rotate(0) translate(4 418)">
<title>G</title>
<polygon fill="#ffffff" stroke="transparent" points="-4,4 -4,-418 666.799,-418 666.799,4 -4,4"/>
<!-- A0 -->
<g id="node1" class="node">
<title>A0</title>
<polygon fill="none" stroke="#000000" points="85.6987,-206 .1003,-206 .1003,-170 85.6987,-170 85.6987,-206"/>
<text text-anchor="middle" x="42.8995" y="-185" font-family="Helvetica,sans-Serif" font-size="10.00" fill="#000000">Parqueadero</text>
</g>
<!-- A2 -->
<g id="node3" class="node">
<title>A2</title>
<polygon fill="none" stroke="#000000" points="430.299,-278 430.299,-322 513.299,-322 513.299,-278 430.299,-278"/>
<text text-anchor="start" x="442.339" y="-303" font-family="Helvetica,sans-Serif" font-size="10.00" fill="#000000">&lt;&lt;abstract&gt;&gt;</text>
<text text-anchor="start" x="452.6275" y="-291" font-family="Helvetica,sans-Serif" font-size="10.00" fill="#000000">Vehiculo</text>
<polygon fill="none" stroke="#000000" points="430.299,-234 430.299,-278 513.299,-278 513.299,-234 430.299,-234"/>
<text text-anchor="start" x="439.85" y="-259" font-family="Helvetica,sans-Serif" font-size="10.00" fill="#000000">&#45;modelo:Texto</text>
<text text-anchor="start" x="444.294" y="-247" font-family="Helvetica,sans-Serif" font-size="10.00" fill="#000000">&#45;placa:Texto</text>
</g>
<!-- A0&#45;&gt;A2 -->
<g id="edge1" class="edge">
<title>A0&#45;&gt;A2</title>
<path fill="none" stroke="#000000" d="M73.0742,-213.7368C115.432,-247.7813 196.4845,-305.5222 277.799,-323 322.1201,-332.5264 335.6444,-333.2703 379.799,-323 393.5349,-319.8051 407.5826,-314.2409 420.4179,-308.0914"/>
<polygon fill="none" stroke="#000000" points="72.9453,-213.6315 65.7681,-212.9327 63.6527,-206.0388 70.8299,-206.7377 72.9453,-213.6315"/>
<polygon fill="#000000" stroke="#000000" points="429.5278,-303.5357 422.5966,-312.0332 425.0558,-305.772 420.5838,-308.0084 420.5838,-308.0084 420.5838,-308.0084 425.0558,-305.772 418.5711,-303.9836 429.5278,-303.5357 429.5278,-303.5357"/>
<text text-anchor="middle" x="417.0963" y="-316.2027" font-family="Helvetica,sans-Serif" font-size="10.00" fill="#000000">*</text>
<text text-anchor="middle" x="83.0372" y="-207.9624" font-family="Helvetica,sans-Serif" font-size="10.00" fill="#000000">1</text>
</g>
<!-- A3 -->
<g id="node4" class="node">
<title>A3</title>
<polygon fill="none" stroke="#000000" points="135.799,-218 135.799,-250 227.799,-250 227.799,-218 135.799,-218"/>
<text text-anchor="start" x="166.2365" y="-231" font-family="Helvetica,sans-Serif" font-size="10.00" fill="#000000">Puesto</text>
<polygon fill="none" stroke="#000000" points="135.799,-186 135.799,-218 227.799,-218 227.799,-186 135.799,-186"/>
<text text-anchor="start" x="145.6855" y="-199" font-family="Helvetica,sans-Serif" font-size="10.00" fill="#000000">&#45;Posición:Texto</text>
</g>
<!-- A0&#45;&gt;A3 -->
<g id="edge4" class="edge">
<title>A0&#45;&gt;A3</title>
<path fill="none" stroke="#000000" d="M97.4979,-199.7924C106.7329,-201.787 116.3354,-203.8609 125.6102,-205.8641"/>
<polygon fill="none" stroke="#000000" points="97.4368,-199.7792 90.7276,-202.4224 85.7073,-197.2458 92.4166,-194.6027 97.4368,-199.7792"/>
<polygon fill="#000000" stroke="#000000" points="135.5128,-208.0029 124.7881,-210.2903 130.6255,-206.9473 125.7382,-205.8917 125.7382,-205.8917 125.7382,-205.8917 130.6255,-206.9473 126.6882,-201.4931 135.5128,-208.0029 135.5128,-208.0029"/>
<text text-anchor="middle" x="116.0108" y="-209.4381" font-family="Helvetica,sans-Serif" font-size="10.00" fill="#000000">*</text>
<text text-anchor="middle" x="105.2093" y="-189.8106" font-family="Helvetica,sans-Serif" font-size="10.00" fill="#000000">1</text>
</g>
<!-- A7 -->
<g id="node8" class="node">
<title>A7</title>
<polygon fill="none" stroke="#000000" points="572.799,-128 572.799,-160 652.799,-160 652.799,-128 572.799,-128"/>
<text text-anchor="start" x="585.8505" y="-141" font-family="Helvetica,sans-Serif" font-size="10.00" fill="#000000">Propietario &#160;</text>
<polygon fill="none" stroke="#000000" points="572.799,0 572.799,-128 652.799,-128 652.799,0 572.799,0"/>
<text text-anchor="start" x="592.798" y="-109" font-family="Helvetica,sans-Serif" font-size="10.00" fill="#000000">&#45;nombre:</text>
<text text-anchor="start" x="600.296" y="-97" font-family="Helvetica,sans-Serif" font-size="10.00" fill="#000000">Texto</text>
<text text-anchor="start" x="590.019" y="-85" font-family="Helvetica,sans-Serif" font-size="10.00" fill="#000000">&#45;apellidos:</text>
<text text-anchor="start" x="600.296" y="-73" font-family="Helvetica,sans-Serif" font-size="10.00" fill="#000000">Texto</text>
<text text-anchor="start" x="605.856" y="-61" font-family="Helvetica,sans-Serif" font-size="10.00" fill="#000000">&#45;id:</text>
<text text-anchor="start" x="600.296" y="-49" font-family="Helvetica,sans-Serif" font-size="10.00" fill="#000000">Texto</text>
<text text-anchor="start" x="595.5775" y="-37" font-family="Helvetica,sans-Serif" font-size="10.00" fill="#000000">&#45;correo:</text>
<text text-anchor="start" x="600.296" y="-25" font-family="Helvetica,sans-Serif" font-size="10.00" fill="#000000">Texto</text>
<text text-anchor="start" x="582.5105" y="-13" font-family="Helvetica,sans-Serif" font-size="10.00" fill="#000000">&#45;edad: Entero</text>
</g>
<!-- A0&#45;&gt;A7 -->
<g id="edge2" class="edge">
<title>A0&#45;&gt;A7</title>
<path fill="none" stroke="#000000" d="M80.0649,-169.8343C125.4905,-148.6022 205.2814,-114.4122 277.799,-99 377.0486,-77.9065 496.3249,-76.721 562.429,-78.1179"/>
<polygon fill="#000000" stroke="#000000" points="572.5706,-78.3616 562.4653,-82.62 567.572,-78.2414 562.5735,-78.1213 562.5735,-78.1213 562.5735,-78.1213 567.572,-78.2414 562.6816,-73.6226 572.5706,-78.3616 572.5706,-78.3616"/>
<text text-anchor="middle" x="554.2466" y="-83.3761" font-family="Helvetica,sans-Serif" font-size="10.00" fill="#000000">*</text>
<text text-anchor="middle" x="92.9976" y="-151.5783" font-family="Helvetica,sans-Serif" font-size="10.00" fill="#000000">1</text>
</g>
<!-- A8 -->
<g id="node9" class="node">
<title>A8</title>
<polygon fill="none" stroke="#000000" points="285.799,-176 285.799,-208 371.799,-208 371.799,-176 285.799,-176"/>
<text text-anchor="start" x="310.1875" y="-189" font-family="Helvetica,sans-Serif" font-size="10.00" fill="#000000">Registro</text>
<polygon fill="none" stroke="#000000" points="285.799,-108 285.799,-176 371.799,-176 371.799,-108 285.799,-108"/>
<text text-anchor="start" x="295.7355" y="-157" font-family="Helvetica,sans-Serif" font-size="10.00" fill="#000000">&#45;fecha ingreso:</text>
<text text-anchor="start" x="314.906" y="-145" font-family="Helvetica,sans-Serif" font-size="10.00" fill="#000000">Fecha</text>
<text text-anchor="start" x="299.07" y="-133" font-family="Helvetica,sans-Serif" font-size="10.00" fill="#000000">&#45;fecha salida:</text>
<text text-anchor="start" x="314.906" y="-121" font-family="Helvetica,sans-Serif" font-size="10.00" fill="#000000">Fecha</text>
</g>
<!-- A0&#45;&gt;A8 -->
<g id="edge3" class="edge">
<title>A0&#45;&gt;A8</title>
<path fill="none" stroke="#000000" d="M98.0201,-181.2915C110.4415,-179.8304 123.5681,-178.326 135.799,-177 182.9649,-171.8865 236.6807,-166.6458 275.4464,-162.9672"/>
<polygon fill="none" stroke="#000000" points="97.8097,-181.3164 92.3226,-185.9954 85.8932,-182.73 91.3802,-178.0511 97.8097,-181.3164"/>
<polygon fill="#000000" stroke="#000000" points="285.4654,-162.0196 275.9335,-167.4413 280.4876,-162.4905 275.5098,-162.9613 275.5098,-162.9613 275.5098,-162.9613 280.4876,-162.4905 275.086,-158.4813 285.4654,-162.0196 285.4654,-162.0196"/>
<text text-anchor="middle" x="268.2156" y="-169.1411" font-family="Helvetica,sans-Serif" font-size="10.00" fill="#000000">*</text>
<text text-anchor="middle" x="102.8975" y="-169.2014" font-family="Helvetica,sans-Serif" font-size="10.00" fill="#000000">1</text>
</g>
<!-- A1 -->
<g id="node2" class="node">
<title>A1</title>
<polygon fill="none" stroke="#000000" points="277.799,-270 277.799,-314 379.799,-314 379.799,-270 277.799,-270"/>
<text text-anchor="start" x="304.618" y="-295" font-family="Helvetica,sans-Serif" font-size="10.00" fill="#000000">&lt;&lt;enum&gt;&gt;</text>
<text text-anchor="start" x="287.685" y="-283" font-family="Helvetica,sans-Serif" font-size="10.00" fill="#000000">ESTADOPUESTO</text>
<polygon fill="none" stroke="#000000" points="277.799,-226 277.799,-270 379.799,-270 379.799,-226 277.799,-226"/>
<text text-anchor="start" x="303.5225" y="-251" font-family="Helvetica,sans-Serif" font-size="10.00" fill="#000000">OCUPADO</text>
<text text-anchor="start" x="314.3515" y="-239" font-family="Helvetica,sans-Serif" font-size="10.00" fill="#000000">LIBRE</text>
</g>
<!-- A4 -->
<g id="node5" class="node">
<title>A4</title>
<polygon fill="none" stroke="#000000" points="639.799,-414 585.799,-414 585.799,-378 639.799,-378 639.799,-414"/>
<text text-anchor="middle" x="612.799" y="-393" font-family="Helvetica,sans-Serif" font-size="10.00" fill="#000000">Carro</text>
</g>
<!-- A2&#45;&gt;A4 -->
<g id="edge10" class="edge">
<title>A2&#45;&gt;A4</title>
<path fill="none" stroke="#000000" d="M518.2668,-329.8615C531.9083,-343.4505 547.3207,-357.5023 562.799,-369 569.8473,-374.2357 578.0381,-379.0943 585.725,-383.2052"/>
<polygon fill="none" stroke="#000000" points="520.3969,-327.0372 510.8812,-322.3788 515.4149,-331.9546 520.3969,-327.0372"/>
</g>
<!-- A5 -->
<g id="node6" class="node">
<title>A5</title>
<polygon fill="none" stroke="#000000" points="562.799,-328 562.799,-360 662.799,-360 662.799,-328 562.799,-328"/>
<text text-anchor="start" x="601.686" y="-341" font-family="Helvetica,sans-Serif" font-size="10.00" fill="#000000">Moto</text>
<polygon fill="none" stroke="#000000" points="562.799,-296 562.799,-328 662.799,-328 662.799,-296 562.799,-296"/>
<text text-anchor="start" x="572.512" y="-309" font-family="Helvetica,sans-Serif" font-size="10.00" fill="#000000">&#45;velocidad: Entero</text>
</g>
<!-- A2&#45;&gt;A5 -->
<g id="edge11" class="edge">
<title>A2&#45;&gt;A5</title>
<path fill="none" stroke="#000000" d="M522.7256,-296.172C535.7423,-300.7715 549.704,-305.705 562.6562,-310.2817"/>
<polygon fill="none" stroke="#000000" points="523.5831,-292.7629 512.9883,-292.7312 521.2509,-299.363 523.5831,-292.7629"/>
</g>
<!-- A6 -->
<g id="node7" class="node">
<title>A6</title>
<polygon fill="none" stroke="#000000" points="567.799,-234 567.799,-278 658.799,-278 658.799,-234 567.799,-234"/>
<text text-anchor="start" x="589.118" y="-259" font-family="Helvetica,sans-Serif" font-size="10.00" fill="#000000">&lt;&lt;enum&gt;&gt;</text>
<text text-anchor="start" x="594.132" y="-247" font-family="Helvetica,sans-Serif" font-size="10.00" fill="#000000">PRECIO</text>
<polygon fill="none" stroke="#000000" points="567.799,-178 567.799,-234 658.799,-234 658.799,-178 567.799,-178"/>
<text text-anchor="start" x="584.409" y="-215" font-family="Helvetica,sans-Serif" font-size="10.00" fill="#000000">CARO(3000)</text>
<text text-anchor="start" x="578.5755" y="-203" font-family="Helvetica,sans-Serif" font-size="10.00" fill="#000000">HIBRIDA(2700)</text>
<text text-anchor="start" x="577.4605" y="-191" font-family="Helvetica,sans-Serif" font-size="10.00" fill="#000000">CLASICA(2500)</text>
</g>
<!-- A2&#45;&gt;A6 -->
<g id="edge9" class="edge">
<title>A2&#45;&gt;A6</title>
<path fill="none" stroke="#000000" d="M512.9883,-263.2688C526.8979,-258.3537 542.6214,-252.7977 557.405,-247.5738"/>
<polygon fill="#000000" stroke="#000000" points="566.9557,-244.199 559.0263,-251.7737 562.2414,-245.8649 557.5271,-247.5308 557.5271,-247.5308 557.5271,-247.5308 562.2414,-245.8649 556.0278,-243.2879 566.9557,-244.199 566.9557,-244.199"/>
</g>
<!-- A2&#45;&gt;A7 -->
<g id="edge7" class="edge">
<title>A2&#45;&gt;A7</title>
<path fill="none" stroke="#000000" d="M503.0544,-233.5649C521.8172,-207.3102 545.9012,-173.6096 566.7248,-144.4713"/>
<polygon fill="#000000" stroke="#000000" points="572.7879,-135.9872 570.6347,-146.7397 569.8807,-140.0552 566.9736,-144.1232 566.9736,-144.1232 566.9736,-144.1232 569.8807,-140.0552 563.3124,-141.5067 572.7879,-135.9872 572.7879,-135.9872"/>
</g>
<!-- A3&#45;&gt;A1 -->
<g id="edge5" class="edge">
<title>A3&#45;&gt;A1</title>
<path fill="none" stroke="#000000" d="M227.9074,-234.3105C240.6452,-238.8164 254.6639,-243.7753 268.0945,-248.5263"/>
<polygon fill="#000000" stroke="#000000" points="277.7433,-251.9395 266.8151,-252.8469 273.0296,-250.272 268.3158,-248.6045 268.3158,-248.6045 268.3158,-248.6045 273.0296,-250.272 269.8165,-244.3621 277.7433,-251.9395 277.7433,-251.9395"/>
</g>
<!-- A3&#45;&gt;A8 -->
<g id="edge6" class="edge">
<title>A3&#45;&gt;A8</title>
<path fill="none" stroke="#000000" d="M237.5793,-195.2325C250.1867,-190.0867 263.5337,-184.6389 276.0132,-179.5452"/>
<polygon fill="#000000" stroke="#000000" points="227.9074,-199.1802 235.4653,-191.2349 232.5366,-197.2907 237.1659,-195.4012 237.1659,-195.4012 237.1659,-195.4012 232.5366,-197.2907 238.8664,-199.5675 227.9074,-199.1802 227.9074,-199.1802"/>
<polygon fill="#000000" stroke="#000000" points="285.3606,-175.73 277.8027,-183.6753 280.7313,-177.6195 276.1021,-179.509 276.1021,-179.509 276.1021,-179.509 280.7313,-177.6195 274.4015,-175.3427 285.3606,-175.73 285.3606,-175.73"/>
</g>
<!-- A8&#45;&gt;A2 -->
<g id="edge8" class="edge">
<title>A8&#45;&gt;A2</title>
<path fill="none" stroke="#000000" d="M371.9404,-194.3296C387.7094,-207.6088 405.666,-222.7301 421.9362,-236.4313"/>
<polygon fill="#000000" stroke="#000000" points="429.7709,-243.029 419.2232,-240.0297 425.9464,-239.8083 422.1218,-236.5876 422.1218,-236.5876 422.1218,-236.5876 425.9464,-239.8083 425.0204,-233.1455 429.7709,-243.029 429.7709,-243.029"/>
</g>
</g>
</svg>
